# WaveFront *.obj file (generated by Cinema 4D)

o Cube

v -0.500000 -0.500000 -0.500000
v -0.500000 -0.500000 0.500000
v 0.500000 -0.500000 -0.500000
v 0.500000 -0.500000 0.500000
v 0.500000 0.500000 -0.500000
v 0.500000 0.500000 0.500000
v -0.500000 0.500000 -0.500000
v -0.500000 0.500000 0.500000
# 8 vertices

vn 0.000000 -1.000000 0.000000
vn 1.000000 0.000000 0.000000
vn 0.000000 1.000000 0.000000
vn 0.000000 1.000000 0.000000
vn -1.000000 0.000000 0.000000
vn 0.000000 0.000000 1.000000
vn 0.000000 0.000000 -1.000000
# 7 normals

vt 0.000000 0.000000 0.000000
vt 0.000000 1.000000 0.000000
vt 1.000000 1.000000 0.000000
vt 1.000000 0.000000 0.000000
# 4 texture coordinates

f 4/3/1 2/2/1 1/1/1
f 6/3/2 4/2/2 3/1/2
f 8/3/3 6/2/4 5/1/3
f 2/3/5 8/2/5 7/1/5
f 6/3/6 8/2/6 2/1/6
f 3/3/7 1/2/7 7/1/7
f 3/4/1 4/3/1 1/1/1
f 5/4/2 6/3/2 3/1/2
f 7/4/3 8/3/3 5/1/3
f 1/4/5 2/3/5 7/1/5
f 4/4/6 6/3/6 2/1/6
f 5/4/7 3/3/7 7/1/7

